# xmcd CD database file
#
# Track frame offsets:
#	150
#	28335
#	60490
#	87602
#	107130
#	148802
#	185360
#	210015
#	242885
#	271767
#	286502
#
# Disc length: 4313 seconds
#
# Revision: 0
# Processed by: cddbd v1.5.1PL0 Copyright (c) Steve Scherf et al.
# Submitted via: CDex 1.51
#
DISCID=9910d70b
DTITLE=Pete Christlieb - For Heaven's Sake
DYEAR=1999
DGENRE=Jazz
TTITLE0=I Won't Dance
TTITLE1=For Heaven's Sake
TTITLE2=Out Of This World
TTITLE3=Capriole
TTITLE4=Pathetique
TTITLE5=Laura
TTITLE6=Secret Passion
TTITLE7=Pernod
TTITLE8=Violets
TTITLE9=When I Fall in Love
TTITLE10=My Ideal
EXTD=YEAR: 1999
EXTT0=
EXTT1=
EXTT2=
EXTT3=
EXTT4=
EXTT5=
EXTT6=
EXTT7=
EXTT8=
EXTT9=
EXTT10=
PLAYORDER=
